<?xml version="1.0" encoding="utf-8"?>
<svg viewBox="0 0 28956.311 10500" style="clip-rule:evenodd;fill-rule:evenodd;image-rendering:optimizeQuality;shape-rendering:geometricPrecision;text-rendering:geometricPrecision" xmlns="http://www.w3.org/2000/svg">
  <defs>
    <style id="style2" type="text/css">
   
    .str1 {stroke:#2B6988;stroke-width:75;stroke-miterlimit:22.9256}
    .str0 {stroke:#5094B5;stroke-width:500;stroke-miterlimit:22.9256}
    .fil0 {fill:none}
    .fil1 {fill:#2B6988;fill-rule:nonzero}
   
  </style>
  </defs>
  <g transform="matrix(1, 0, 0, 1, -371.920013, -5250)" id="Layer_x0020_1">
    <g id="_2431382003360">
      <g id="g13">
        <path id="path7" d="m 5621.92,5500 c 2761.42,0 5000,2238.58 5000,5000 0,2761.42 -2238.58,5000 -5000,5000 -2761.42,0 -5000,-2238.58 -5000,-5000 0,-2761.42 2238.58,-5000 5000,-5000 z" class="fil0 str0"/>
        <path id="path9" d="m 5621.92,8000 c 2761.42,0 5000,1119.28 5000,2500 0,1380.72 -2238.58,2500 -5000,2500 -2761.42,0 -5000,-1119.28 -5000,-2500 0,-1380.72 2238.58,-2500 5000,-2500 z" class="fil0 str0"/>
        <path id="path11" d="m 3121.92,10500 c 0,-2761.42 1119.28,-5000 2500,-5000 1380.72,0 2500,2238.58 2500,5000 0,2761.42 -1119.28,5000 -2500,5000 -1380.72,0 -2500,-2238.58 -2500,-5000 z" class="fil0 str0"/>
      </g>
      <path id="path15" d="m 13884.51,8935.43 h 765.67 v -827.25 c 0,-593.46 -348.04,-908.17 -1206.51,-908.17 -777.28,0 -1206.51,314.71 -1206.51,953.13 v 782.29 c 0,332.7 116,548.5 324.82,827.25 l 1125.3,1519.62 c 162.42,224.79 220.43,395.64 220.43,620.43 v 908.18 c 0,305.72 -150.81,485.56 -464.04,485.56 -336.44,0 -487.25,-179.84 -487.25,-485.56 v -854.22 h -765.67 v 890.19 c 0,656.4 406.03,953.13 1252.92,953.13 765.67,0 1229.71,-341.69 1229.71,-953.13 v -1025.07 c 0,-287.74 -104.42,-566.49 -278.43,-791.28 L 13176.83,9412 c -127.61,-170.85 -174,-377.66 -174,-584.47 v -683.38 c 0,-251.77 81.2,-440.6 440.84,-440.6 359.62,0 440.84,188.83 440.84,440.6 z m 3747.14,4127.25 h -23.21 l -858.47,-5808.72 h -1183.31 v 6492.1 h 672.86 V 7757.5 h 23.2 l 881.68,5988.56 h 951.29 l 881.68,-5988.56 h 23.2 v 5988.56 h 672.87 v -6492.1 h -1183.31 z m 3155.49,683.38 h 765.66 v -6492.1 h -765.66 z m 3248.31,-2679.57 h 614.86 v 2140.06 c -104.42,53.95 -301.64,89.92 -510.46,89.92 -266.83,0 -603.25,-116.9 -603.25,-647.41 V 8306 c 0,-359.67 116.01,-602.45 556.85,-602.45 440.84,0 556.86,242.78 556.86,602.45 v 647.41 h 765.67 v -728.33 c 0,-674.39 -487.25,-1025.07 -1322.53,-1025.07 -835.27,0 -1322.52,350.68 -1322.52,1025.07 v 4432.97 c 0,746.32 382.83,1141.96 1438.53,1141.96 394.44,0 800.47,-71.93 1206.52,-197.82 v -3039.24 h -1380.53 z m 2563.83,1636.52 c 0,638.42 313.23,1097 1345.73,1097 1032.49,0 1345.72,-458.58 1345.72,-1097 v -4406 c 0,-638.42 -313.23,-1097 -1345.72,-1097 -1032.5,0 -1345.73,458.58 -1345.73,1097 z m 765.67,-4388.02 c 0,-359.67 92.81,-611.44 580.06,-611.44 487.24,0 580.05,251.77 580.05,611.44 v 4370.03 c 0,359.68 -92.81,611.45 -580.05,611.45 -487.25,0 -580.06,-251.77 -580.06,-611.45 z" class="fil1 str1"/>
    </g>
  </g>
</svg>